<?xml version="1.0" standalone="no"?>
<!DOCTYPE svg PUBLIC "-//W3C//DTD SVG 20010904//EN"
 "http://www.w3.org/TR/2001/REC-SVG-20010904/DTD/svg10.dtd">
<svg version="1.0" xmlns="http://www.w3.org/2000/svg"
 width="256.000000pt" height="256.000000pt" viewBox="0 0 256.000000 256.000000"
 preserveAspectRatio="xMidYMid meet">

<g transform="translate(0.000000,256.000000) scale(0.100000,-0.100000)"
fill="#000000" stroke="none">
<path d="M1170 2499 c-58 -33 -306 -171 -553 -306 l-447 -247 2 -654 3 -654
553 -320 552 -319 553 319 552 319 3 655 2 655 -187 103 c-104 57 -353 195
-555 307 -201 112 -368 203 -370 203 -2 -1 -50 -28 -108 -61z m-386 -570 c137
-39 130 -31 157 -170 6 -31 14 -61 18 -66 3 -5 80 -17 171 -25 91 -9 306 -31
478 -49 291 -31 312 -34 312 -53 0 -44 -73 -392 -83 -398 -7 -4 -182 -8 -390
-8 -356 0 -378 -1 -373 -17 2 -10 7 -33 11 -50 l7 -33 344 0 c331 0 345 -1
364 -20 23 -23 25 -39 8 -63 -12 -15 -51 -17 -400 -19 -291 -2 -390 0 -399 9
-12 12 -64 237 -140 608 -23 110 -45 207 -50 216 -5 9 -39 24 -81 35 -100 26
-134 66 -92 108 21 21 53 20 138 -5z m457 -1088 c36 -36 39 -43 39 -96 0 -53
-3 -60 -39 -96 -34 -34 -44 -39 -85 -39 -86 0 -146 55 -146 133 0 82 58 137
144 137 43 0 53 -4 87 -39z m484 19 c18 -11 40 -36 49 -54 72 -152 -136 -274
-233 -137 -26 36 -28 111 -4 148 40 61 127 81 188 43z"/>
</g>
</svg>
